<?xml version="1.0" standalone="no"?>
<!DOCTYPE svg PUBLIC "-//W3C//DTD SVG 20010904//EN"
 "http://www.w3.org/TR/2001/REC-SVG-20010904/DTD/svg10.dtd">
<svg version="1.0" xmlns="http://www.w3.org/2000/svg"
 width="300.000000pt" height="300.000000pt" viewBox="0 0 300.000000 300.000000"
 preserveAspectRatio="xMidYMid meet">
<metadata>
Created by potrace 1.10, written by Peter Selinger 2001-2011
</metadata>
<g transform="translate(0.000000,300.000000) scale(0.100000,-0.100000)"
fill="#000000" stroke="none">
<path d="M1440 2480 c-134 -14 -244 -60 -421 -178 -133 -89 -165 -105 -191
-96 -11 3 -53 33 -92 66 -86 73 -158 108 -235 115 -112 10 -232 -49 -286 -141
-34 -58 -33 -123 6 -293 37 -161 36 -219 -5 -262 -34 -36 -35 -77 -1 -93 38
-17 110 15 174 78 30 30 61 54 68 54 8 0 35 -22 59 -49 52 -58 108 -83 186
-83 96 0 188 61 188 125 0 20 26 22 98 7 52 -12 88 -46 151 -146 47 -73 43
-108 -20 -186 -81 -100 -93 -133 -85 -248 8 -115 31 -217 91 -402 25 -75 45
-148 45 -162 l0 -26 330 0 330 0 0 24 c0 13 20 86 45 163 60 188 83 289 91
403 8 115 -4 148 -85 248 -66 82 -68 114 -12 198 70 105 90 123 150 134 76 14
91 13 91 -7 0 -35 38 -80 86 -103 107 -52 244 -16 308 83 10 15 26 27 36 27 9
0 41 -24 71 -54 64 -63 136 -95 174 -78 34 16 33 57 -2 94 -41 43 -42 113 -4
268 41 164 41 230 1 293 -74 117 -230 167 -365 116 -32 -12 -89 -48 -132 -82
-109 -89 -118 -93 -161 -72 -20 9 -83 48 -141 86 -219 147 -368 197 -541 179z
m264 -54 c43 -15 109 -46 146 -71 38 -24 71 -41 74 -38 3 3 8 -2 12 -11 3 -9
10 -16 15 -16 11 0 111 -69 120 -82 3 -6 10 -10 15 -10 5 0 20 -5 34 -10 35
-13 81 -2 112 27 15 14 29 25 31 25 3 0 21 16 42 35 127 115 307 121 419 11
74 -71 81 -130 37 -311 -44 -181 -44 -222 0 -289 38 -56 30 -71 -30 -61 -32 5
-55 20 -102 66 -79 77 -100 78 -158 9 -23 -28 -47 -48 -52 -45 -5 4 -9 2 -9
-3 0 -16 -58 -32 -113 -32 -74 0 -131 31 -157 85 -22 46 -35 55 -78 55 -90 0
-169 -62 -229 -179 -35 -66 -31 -114 15 -175 83 -110 96 -137 96 -201 1 -124
-23 -241 -95 -462 -21 -67 -39 -129 -39 -138 0 -13 -8 -16 -37 -15 -18 1 -3
69 63 280 36 115 55 217 57 305 1 76 -1 83 -33 130 -18 28 -37 52 -41 55 -14
10 -57 96 -60 120 -5 49 55 190 82 190 6 0 8 4 5 8 -7 11 59 84 68 75 4 -4 4
1 0 12 -7 18 -6 19 11 5 11 -9 16 -10 11 -2 -5 8 13 34 50 72 31 33 60 60 65
60 4 0 22 15 40 33 19 18 51 46 73 62 21 17 53 43 70 58 17 15 51 40 76 54 25
15 59 37 75 49 51 37 143 76 165 69 11 -3 38 -24 60 -45 44 -43 50 -73 26
-131 -19 -45 -61 -100 -69 -92 -4 3 -7 0 -7 -8 0 -8 -16 -31 -36 -52 -28 -29
-35 -43 -30 -62 4 -14 1 -25 -7 -29 -6 -3 0 -3 16 0 17 4 27 2 27 -6 0 -6 -3
-9 -7 -7 -5 3 -17 1 -28 -4 -16 -6 -14 -8 13 -8 17 -1 32 4 32 9 0 6 13 10 30
10 23 0 33 -7 45 -30 15 -29 38 -39 49 -22 3 5 7 35 9 68 3 32 17 102 32 154
29 102 41 185 31 223 -8 33 -59 84 -102 102 -61 25 -133 29 -188 10 -58 -20
-91 -42 -158 -107 -27 -26 -65 -52 -84 -58 -63 -21 -84 -12 -314 131 -100 63
-189 105 -258 123 -69 17 -207 21 -244 7 -13 -5 -43 -15 -68 -22 -47 -14 -136
-58 -179 -88 -14 -10 -33 -21 -41 -24 -8 -4 -53 -32 -100 -62 -47 -31 -101
-60 -120 -66 -53 -16 -109 3 -162 54 -61 58 -81 73 -130 98 -44 23 -132 30
-195 17 -43 -8 -98 -52 -117 -93 -25 -52 -22 -81 33 -302 6 -24 13 -67 15 -97
2 -30 7 -59 10 -65 13 -21 38 -11 49 19 10 26 17 30 52 32 22 1 50 1 63 0 18
-1 21 2 13 12 -6 7 -8 16 -5 19 11 10 -17 67 -32 67 -8 0 -14 4 -14 8 0 5 -13
22 -29 38 -40 41 -81 121 -81 158 0 38 46 98 89 116 27 11 36 9 78 -11 54 -26
188 -111 248 -157 126 -98 158 -125 239 -204 47 -45 66 -71 60 -80 -6 -10 -4
-10 9 1 12 9 17 10 17 2 0 -7 16 -28 35 -48 19 -20 35 -42 35 -48 0 -7 6 -15
14 -18 23 -9 66 -112 66 -159 0 -48 -37 -120 -89 -176 -17 -18 -30 -34 -30
-35 0 -1 -4 -14 -10 -29 -11 -30 -5 -201 8 -227 5 -9 11 -32 15 -51 3 -19 26
-98 51 -175 58 -187 63 -211 36 -218 -23 -6 -31 0 -31 22 0 9 -12 52 -26 96
-87 271 -96 311 -109 462 -7 87 9 129 81 216 59 73 69 130 33 192 -12 22 -28
52 -36 67 -7 14 -20 29 -29 32 -8 3 -12 11 -9 16 4 6 2 9 -3 8 -6 -2 -9 0 -8
5 0 4 -15 17 -34 28 -24 15 -53 22 -99 23 -63 1 -66 0 -81 -30 -37 -74 -86
-104 -171 -104 -69 0 -129 30 -175 86 -49 59 -75 59 -134 -2 -45 -46 -108 -83
-143 -84 -10 0 -15 4 -12 10 3 6 -1 7 -9 4 -21 -8 -21 19 0 37 8 7 22 26 31
43 20 39 13 146 -20 276 -34 133 -32 205 9 261 18 24 40 48 50 54 11 5 21 12
24 15 13 13 82 40 90 35 5 -3 11 -1 15 5 19 30 235 -25 235 -60 0 -5 8 -11 18
-15 9 -3 37 -24 62 -46 84 -76 111 -76 218 -4 45 30 82 51 82 47 0 -4 5 1 11
11 5 9 16 17 24 17 7 0 15 3 17 8 10 22 171 99 257 123 97 27 249 21 355 -15z
m-96 -47 c72 -17 215 -88 331 -164 209 -136 245 -137 389 -12 87 75 123 92
202 91 106 0 190 -63 190 -141 0 -16 -14 -85 -32 -154 -17 -68 -32 -152 -32
-186 -1 -67 -12 -83 -23 -33 -7 38 -30 51 -75 44 -61 -10 -57 19 10 91 115
122 132 214 54 287 -51 47 -81 55 -137 34 -102 -40 -337 -214 -514 -382 -153
-146 -233 -267 -233 -354 0 -54 18 -93 78 -170 59 -76 63 -90 53 -197 -9 -103
-24 -167 -76 -327 -19 -59 -40 -136 -47 -170 -11 -52 -16 -62 -36 -64 -23 -4
-23 -3 -16 65 4 37 23 160 42 273 20 113 38 221 41 241 7 51 -14 69 -83 69
l-54 0 0 222 c0 208 1 224 22 267 28 59 149 180 258 261 47 34 89 68 93 76 29
51 -109 115 -308 144 -90 12 -320 12 -410 0 -199 -29 -337 -93 -308 -144 4 -8
46 -42 93 -76 109 -81 230 -202 258 -261 21 -43 22 -59 22 -267 l0 -222 -54 0
c-52 0 -86 -16 -86 -41 0 -5 18 -114 40 -242 21 -127 42 -263 46 -300 7 -68 7
-69 -16 -65 -20 2 -25 12 -36 63 -6 33 -30 118 -53 188 -48 152 -69 249 -71
337 -3 96 -4 94 49 162 66 87 83 124 83 178 0 105 -117 260 -337 449 -177 152
-373 284 -441 297 -24 4 -43 0 -71 -16 -116 -66 -109 -178 19 -315 67 -72 71
-101 10 -91 -45 7 -68 -6 -75 -44 -11 -50 -22 -34 -23 33 0 34 -15 118 -32
186 -37 146 -39 173 -12 215 31 51 94 81 170 81 79 -1 116 -17 202 -92 144
-125 179 -124 389 12 123 80 214 127 289 150 30 9 60 18 65 20 25 8 151 4 193
-6z m152 -219 c85 -18 184 -51 196 -66 6 -8 14 -11 17 -7 4 3 9 -2 13 -11 7
-19 -1 -28 -96 -100 -88 -67 -210 -191 -243 -248 l-27 -47 0 -228 c0 -258 -1
-255 76 -257 36 -1 49 -6 54 -20 3 -10 -8 -102 -26 -205 -17 -102 -38 -228
-44 -278 -7 -51 -17 -93 -22 -93 -5 0 -7 -4 -4 -8 2 -4 -4 -9 -15 -9 -30 -3
-29 15 31 374 15 89 24 167 19 174 -4 7 -32 14 -63 17 l-56 4 -1 92 c-2 293 3
438 16 470 8 18 30 55 50 81 43 56 195 205 210 205 15 1 47 49 42 64 -7 19
-107 44 -226 57 -222 24 -551 -15 -551 -66 0 -7 23 -32 51 -56 145 -123 231
-224 257 -300 15 -44 18 -527 3 -542 -5 -5 -32 -12 -58 -15 -26 -2 -50 -6 -52
-8 -6 -6 12 -145 39 -294 11 -63 23 -147 27 -187 6 -70 5 -72 -16 -70 -26 2
-24 -4 -56 207 -14 91 -33 215 -44 275 -13 77 -16 114 -9 123 7 7 30 12 60 11
55 -2 67 7 69 56 3 63 4 70 13 84 6 10 6 12 -2 7 -9 -5 -12 37 -12 163 l0 170
-34 58 c-43 72 -121 151 -231 232 -132 97 -132 111 -5 157 108 39 227 53 415
49 99 -2 205 -9 235 -15z m-76 -61 c50 -6 114 -18 144 -27 l54 -17 -48 -35
c-75 -54 -205 -190 -244 -255 l-35 -59 -3 -265 c-2 -146 0 -276 3 -288 5 -21
11 -23 66 -23 59 0 61 -1 55 -23 -13 -53 -66 -379 -73 -453 l-8 -79 -93 -2
c-106 -1 -94 -15 -112 132 -10 84 -55 353 -67 403 -5 21 -2 22 50 22 35 0 59
5 66 14 9 10 11 90 9 288 l-3 274 -35 58 c-39 66 -170 203 -243 256 l-49 35
59 17 c119 36 340 48 507 27z"/>
<path d="M443 2170 c-26 -10 -43 -39 -43 -72 0 -37 31 -85 99 -152 l63 -63 46
9 c26 5 63 6 82 3 39 -7 110 -36 110 -45 0 -14 67 -44 95 -42 41 4 52 17 32
40 -9 10 -14 23 -10 28 5 5 4 6 0 2 -5 -3 -21 7 -36 23 -16 16 -31 29 -35 29
-4 0 -13 6 -21 13 -7 6 -30 26 -51 42 -20 17 -48 40 -62 53 -14 12 -28 22 -33
22 -4 0 -14 6 -21 13 -8 6 -25 18 -38 26 -14 8 -45 27 -70 42 -56 34 -79 40
-107 29z m103 -51 c78 -48 195 -134 301 -223 70 -60 71 -61 42 -64 -22 -2 -39
5 -63 26 -54 47 -114 66 -196 60 l-69 -5 -61 62 c-56 59 -80 98 -80 131 0 15
35 54 48 54 5 0 39 -19 78 -41z"/>
<path d="M2502 2169 c-24 -9 -208 -126 -228 -144 -6 -5 -28 -23 -49 -40 -141
-112 -181 -157 -149 -169 33 -13 73 -5 110 22 76 52 87 56 169 58 44 0 85 2
92 3 20 2 119 104 133 138 8 17 17 30 21 28 12 -8 -9 77 -22 90 -21 19 -51 25
-77 14z m58 -29 c37 -37 22 -79 -60 -165 l-61 -62 -69 5 c-82 6 -142 -13 -196
-60 -24 -21 -41 -28 -63 -26 -29 3 -27 6 67 84 53 44 122 99 152 121 63 46
190 123 202 123 4 0 17 -9 28 -20z"/>
<path d="M591 1839 c-72 -29 -65 -111 13 -147 120 -56 237 -17 207 69 -13 39
-27 52 -79 72 -47 19 -104 21 -141 6z m144 -30 c15 -8 37 -26 48 -41 19 -25
19 -28 3 -52 -14 -23 -23 -26 -72 -26 -67 0 -117 20 -140 55 -43 65 68 109
161 64z"/>
<path d="M2262 1830 c-58 -26 -76 -47 -76 -85 0 -43 17 -62 66 -75 47 -13 140
9 175 42 91 84 -37 176 -165 118z m162 -29 c19 -20 20 -23 6 -49 -22 -39 -75
-62 -142 -62 -50 0 -60 3 -73 24 -51 77 139 156 209 87z"/>
<path d="M480 1789 c0 -5 9 -9 20 -9 11 0 20 2 20 4 0 2 -9 6 -20 9 -11 3 -20
1 -20 -4z"/>
<path d="M319 393 c-13 -16 -12 -17 4 -4 9 7 17 15 17 17 0 8 -8 3 -21 -13z"/>
</g>
</svg>
