<?xml version="1.0" standalone="no"?>
<!DOCTYPE svg PUBLIC "-//W3C//DTD SVG 20010904//EN"
 "http://www.w3.org/TR/2001/REC-SVG-20010904/DTD/svg10.dtd">
<svg version="1.0" xmlns="http://www.w3.org/2000/svg"
 width="300.000000pt" height="300.000000pt" viewBox="0 0 300.000000 300.000000"
 preserveAspectRatio="xMidYMid meet">
<metadata>
Created by potrace 1.10, written by Peter Selinger 2001-2011
</metadata>
<g transform="translate(0.000000,300.000000) scale(0.100000,-0.100000)"
fill="#000000" stroke="none">
<path d="M1815 2794 c-86 -22 -117 -38 -154 -80 -24 -27 -47 -44 -61 -44 -38
0 -86 -59 -100 -123 -22 -97 14 -257 74 -332 15 -19 15 -13 9 77 -5 76 -2 107
11 148 16 48 15 73 0 57 -16 -16 -41 -113 -40 -152 1 -24 -2 -41 -6 -39 -12 8
-30 110 -26 152 2 23 1 42 -2 42 -3 0 -6 9 -6 19 0 11 3 18 7 15 4 -2 10 3 13
12 4 10 2 13 -6 8 -17 -11 -3 22 25 56 12 16 32 29 43 29 12 1 41 21 65 46 70
72 115 86 262 81 124 -4 174 -16 160 -39 -5 -9 -2 -8 9 1 15 12 30 5 115 -57
25 -18 29 -37 11 -45 -9 -4 -8 -5 2 -4 29 2 51 -15 69 -56 25 -54 40 -130 37
-186 -2 -45 -2 -45 -37 -43 -19 2 -41 0 -49 -4 -33 -14 -41 -9 -59 33 -23 51
-33 54 -65 19 -13 -13 -26 -22 -29 -18 -4 3 -14 0 -24 -8 -9 -8 -14 -9 -10 -3
4 7 -2 10 -18 8 -14 -1 -25 2 -25 7 0 4 -6 6 -13 3 -17 -6 -118 39 -136 60 -7
9 -19 16 -25 16 -6 0 -22 14 -35 30 -30 38 -46 39 -26 0 27 -53 180 -139 248
-140 17 0 27 -5 27 -15 0 -8 5 -15 10 -15 6 0 10 7 10 15 0 8 8 15 18 15 21 0
52 30 52 50 0 24 16 -2 28 -46 15 -51 15 -87 2 -79 -5 3 -10 -3 -10 -15 0 -17
7 -13 43 25 49 51 63 54 101 24 49 -38 21 -135 -47 -164 -18 -7 -54 -41 -81
-74 -27 -33 -52 -59 -56 -56 -4 2 -24 -4 -44 -14 -21 -11 -31 -21 -24 -24 22
-8 -171 -167 -203 -167 -5 0 -20 23 -34 50 l-25 50 27 10 c57 21 57 24 2 30
-121 15 -191 75 -220 189 -14 56 -17 60 -22 35 -3 -16 1 -42 9 -58 8 -16 14
-35 14 -42 0 -7 7 -17 16 -22 23 -13 11 -57 -27 -94 -16 -16 -29 -32 -29 -35
0 -13 121 4 138 20 26 24 33 21 26 -8 -5 -21 -3 -25 17 -25 20 0 30 -14 61
-80 30 -62 39 -96 44 -161 6 -73 5 -82 -9 -76 -8 3 -31 9 -51 12 -24 5 -33 11
-29 21 3 8 11 14 18 14 7 0 15 7 19 15 3 8 12 15 21 15 8 0 15 7 15 15 0 22
-6 20 -75 -37 l-64 -53 66 -7 c37 -4 77 -9 90 -13 22 -5 23 -3 22 52 0 32 -4
79 -8 105 l-8 47 60 37 c33 20 90 65 127 100 37 35 76 64 87 64 11 0 34 3 51
6 26 5 30 9 22 24 -8 15 -4 17 39 12 34 -3 61 2 99 18 59 25 87 50 48 43 -29
-6 -66 12 -66 32 0 9 10 15 25 15 29 0 65 32 89 79 18 34 12 40 -16 14 -17
-15 -19 -15 -38 2 -29 26 -39 75 -33 158 18 236 -155 408 -424 422 -48 2 -97
2 -108 -1z m563 -630 c-7 -6 -29 -16 -48 -23 -28 -8 -32 -8 -20 2 8 6 21 25
28 41 12 28 13 28 33 10 16 -14 17 -20 7 -30z m-78 -57 c0 -8 9 -22 20 -32 18
-16 19 -20 6 -27 -21 -12 -94 -21 -112 -14 -13 5 -13 9 2 35 25 42 84 68 84
38z m-631 -136 c18 -11 5 -31 -20 -31 -18 0 -26 20 -12 33 8 9 15 9 32 -2z
m116 -51 c3 -5 -1 -10 -9 -10 -9 0 -16 5 -16 10 0 6 4 10 9 10 6 0 13 -4 16
-10z"/>
<path d="M1935 2590 c-3 -6 1 -7 9 -4 18 7 21 14 7 14 -6 0 -13 -4 -16 -10z"/>
<path d="M2009 2583 c-13 -16 -12 -17 4 -4 9 7 17 15 17 17 0 8 -8 3 -21 -13z"/>
<path d="M2053 2583 c9 -2 25 -2 35 0 9 3 1 5 -18 5 -19 0 -27 -2 -17 -5z"/>
<path d="M1730 2516 c5 -5 10 -21 10 -35 0 -15 9 -46 20 -70 24 -51 19 -61
-18 -41 -23 14 -46 41 -105 125 -33 46 -30 19 4 -46 45 -84 99 -120 178 -118
31 1 46 4 34 6 -13 2 -32 16 -43 30 -19 24 -67 141 -63 154 1 3 -5 6 -13 6
-10 0 -11 -4 -4 -11z"/>
<path d="M1893 2493 c9 -2 23 -2 30 0 6 3 -1 5 -18 5 -16 0 -22 -2 -12 -5z"/>
<path d="M1625 2355 c-25 -24 -33 -55 -15 -55 6 0 10 8 10 18 0 10 5 23 12 30
7 7 20 12 30 12 10 0 18 5 18 10 0 18 -31 10 -55 -15z"/>
<path d="M1953 2285 c-1 -51 9 -75 32 -75 7 0 15 7 19 15 8 21 -11 65 -28 65
-8 0 -16 10 -19 23 -2 12 -4 0 -4 -28z"/>
<path d="M1988 2313 c6 -2 18 -2 25 0 6 3 1 5 -13 5 -14 0 -19 -2 -12 -5z"/>
<path d="M992 2288 c-17 -17 -15 -49 6 -65 16 -14 16 -14 -3 -8 -15 5 -17 3
-8 -6 13 -13 78 -4 89 12 4 7 -1 9 -14 5 -11 -4 -31 -2 -44 4 -30 14 -34 45
-6 47 12 1 18 -3 15 -11 -4 -11 12 -12 81 -9 77 4 92 2 132 -19 56 -29 105
-99 120 -172 9 -46 14 -53 31 -49 15 4 22 -2 30 -26 12 -35 26 -38 70 -15 37
19 68 12 49 -11 -10 -12 -10 -15 2 -15 7 0 14 9 15 20 2 28 -42 38 -79 17 -28
-16 -29 -16 -38 8 -5 14 -21 30 -34 36 -13 7 -27 23 -31 38 -14 63 -52 130
-87 156 -53 40 -93 51 -172 49 -49 -2 -73 1 -83 12 -18 17 -25 18 -41 2z"/>
<path d="M1828 2293 c12 -2 30 -2 40 0 9 3 -1 5 -23 4 -22 0 -30 -2 -17 -4z"/>
<path d="M2027 2262 c4 -27 1 -47 -7 -57 -11 -13 -10 -14 4 -9 18 7 22 68 7
93 -6 10 -8 0 -4 -27z"/>
<path d="M1718 2247 c17 -21 32 -47 32 -59 0 -12 3 -19 6 -15 14 14 -10 68
-39 89 l-32 22 33 -37z"/>
<path d="M1660 2256 c0 -9 5 -16 10 -16 6 0 10 4 10 9 0 6 -4 13 -10 16 -5 3
-10 -1 -10 -9z"/>
<path d="M2236 2248 c-18 -25 -21 -68 -7 -68 6 0 9 12 8 28 -2 24 1 27 27 25
27 -2 28 -1 10 13 -18 15 -18 15 4 11 12 -3 20 -1 16 4 -10 17 -43 9 -58 -13z"/>
<path d="M907 2198 c-25 -24 -48 -53 -52 -66 -3 -12 -10 -20 -13 -18 -4 2 -7
-39 -7 -92 1 -67 -3 -104 -13 -119 -8 -13 -12 -30 -8 -38 3 -10 2 -13 -5 -10
-17 11 -47 -24 -41 -48 3 -12 1 -19 -3 -15 -10 9 -85 -29 -85 -43 0 -8 5 -7
15 1 8 7 30 16 48 19 27 6 32 12 35 39 4 40 26 42 42 2 8 -20 19 -30 34 -30
11 0 46 -13 76 -30 30 -16 60 -29 65 -29 6 0 -3 7 -20 16 -16 9 -45 31 -65 49
-30 29 -47 38 -70 36 -3 0 -6 20 -8 44 -2 33 1 44 12 44 12 0 14 15 9 89 -6
84 -4 92 21 135 15 25 43 57 62 70 20 13 31 27 25 30 -5 4 -30 -13 -54 -36z
m-37 -398 c12 -8 11 -10 -7 -10 -13 0 -23 5 -23 10 0 13 11 13 30 0z"/>
<path d="M1677 2223 c-11 -11 -8 -48 5 -61 21 -21 38 -14 38 16 0 37 -25 63
-43 45z"/>
<path d="M1810 2161 c0 -6 5 -13 10 -16 6 -3 10 1 10 9 0 9 -4 16 -10 16 -5 0
-10 -4 -10 -9z"/>
<path d="M1880 2110 c-14 -4 -40 -8 -59 -9 l-35 -1 28 -29 c16 -16 42 -35 59
-42 26 -11 31 -10 43 6 18 24 19 85 2 84 -7 -1 -24 -5 -38 -9z m40 -26 c0 -18
-24 -44 -40 -44 -26 0 -25 15 2 34 23 16 38 20 38 10z"/>
<path d="M1266 2061 c21 -21 29 -19 21 4 -4 8 -14 15 -23 15 -16 0 -16 -2 2
-19z"/>
<path d="M915 2000 c-10 -11 -15 -20 -11 -20 11 0 39 30 34 36 -3 2 -13 -5
-23 -16z"/>
<path d="M1235 1990 c3 -5 1 -10 -6 -10 -10 0 -10 -3 -2 -11 16 -16 44 -4 37
16 -3 8 -13 15 -21 15 -8 0 -11 -4 -8 -10z"/>
<path d="M1945 1946 c-46 -10 -132 -62 -121 -73 2 -3 25 7 51 22 25 15 49 25
52 21 4 -3 1 -6 -5 -6 -7 0 -12 -12 -12 -27 1 -24 2 -26 11 -10 6 9 15 15 20
11 6 -3 7 4 3 20 -4 19 -2 26 8 26 8 0 23 7 34 15 10 8 17 14 14 13 -3 0 -28
-6 -55 -12z"/>
<path d="M982 1937 c-14 -17 2 -42 22 -34 20 8 20 21 2 36 -10 8 -16 8 -24 -2z"/>
<path d="M1408 1928 c-26 -40 -40 -71 -30 -64 10 6 55 86 48 86 -2 0 -10 -10
-18 -22z"/>
<path d="M2188 1935 c39 -17 62 -64 62 -128 0 -88 57 -263 111 -338 34 -48 33
-27 -1 37 -31 58 -57 120 -65 159 -14 60 -25 125 -29 167 -2 25 -7 52 -11 60
-20 34 -51 58 -74 58 -25 -1 -24 -1 7 -15z"/>
<path d="M1500 1921 c0 -6 4 -13 10 -16 6 -3 7 1 4 9 -7 18 -14 21 -14 7z"/>
<path d="M1451 1904 c0 -11 3 -14 6 -6 3 7 2 16 -1 19 -3 4 -6 -2 -5 -13z"/>
<path d="M1175 1884 c-16 -7 -51 -15 -77 -19 -50 -7 -54 -11 -39 -33 7 -12 14
-11 39 2 17 9 43 16 58 16 27 0 27 0 9 -20 -14 -16 -27 -19 -54 -15 -34 4 -35
4 -17 -10 24 -19 30 -19 65 -1 17 9 31 28 39 52 6 21 10 39 9 40 -1 0 -15 -5
-32 -12z"/>
<path d="M2045 1873 c-5 -22 -12 -30 -22 -26 -13 5 -13 2 -4 -15 8 -16 8 -24
-2 -34 -7 -7 -20 -24 -30 -37 l-17 -25 -11 32 c-17 50 -30 38 -14 -14 7 -25
15 -48 17 -50 6 -6 73 88 87 123 7 17 11 42 8 55 -4 21 -5 20 -12 -9z"/>
<path d="M1558 1883 c31 -12 9 -31 -43 -38 -35 -4 -55 -11 -55 -19 0 -7 -16
-33 -35 -57 l-35 -44 88 -22 c48 -12 94 -23 104 -23 14 0 198 144 198 156 0
13 -34 0 -59 -23 -16 -16 -38 -34 -48 -42 -10 -8 -32 -28 -50 -44 -31 -29 -33
-30 -78 -17 -25 7 -56 13 -68 14 -13 1 -21 7 -19 16 3 11 0 11 -12 0 -25 -20
-21 13 4 35 11 10 20 24 20 32 0 8 5 11 10 8 6 -3 10 -2 10 3 0 5 19 13 43 18
33 7 43 14 45 32 3 16 -1 22 -15 21 -10 0 -13 -3 -5 -6z"/>
<path d="M1327 1809 c-20 -22 -47 -44 -60 -49 -13 -5 -16 -9 -7 -9 19 -1 86
53 100 80 15 27 10 24 -33 -22z"/>
<path d="M2165 1704 c-64 -83 -87 -119 -54 -83 13 15 36 42 51 60 14 19 36 45
47 58 23 26 25 31 14 31 -5 -1 -30 -30 -58 -66z"/>
<path d="M1180 1725 c-21 -8 -62 -12 -105 -10 l-70 4 71 -11 c63 -9 75 -8 115
10 50 23 43 28 -11 7z"/>
<path d="M684 1705 c-1 -14 2 -25 7 -25 5 0 8 -3 8 -7 -3 -18 1 -36 7 -30 4 3
14 -3 24 -15 l17 -22 46 27 c40 24 47 25 60 12 8 -8 17 -11 21 -8 3 3 12 1 19
-5 8 -7 16 -9 20 -6 3 3 22 1 42 -6 26 -8 35 -16 31 -27 -3 -8 -6 -28 -6 -44
0 -21 -5 -29 -18 -29 -9 0 -33 -8 -52 -19 -30 -16 -52 -18 -140 -14 -58 2
-111 6 -118 8 -7 3 -38 -7 -68 -21 -113 -53 -205 -180 -184 -254 5 -18 16 -40
24 -49 12 -13 15 -48 14 -174 l-1 -157 -216 -2 -216 -3 211 -2 211 -3 6 -83
c4 -45 7 -133 7 -194 l0 -113 -32 -1 c-31 -2 -31 -2 -5 -6 15 -2 27 -9 27 -15
0 -6 7 -19 15 -28 13 -14 11 -16 -12 -18 -15 -1 -28 -3 -29 -5 -7 -7 1202 6
1220 13 12 5 -229 9 -571 9 l-593 1 0 383 c0 363 -1 385 -19 401 -64 58 -11
180 119 270 l45 31 145 1 c117 0 155 4 198 19 29 11 51 24 48 30 -2 6 0 31 3
56 l7 45 -65 13 c-36 6 -75 18 -86 25 -17 11 -25 10 -57 -10 -43 -28 -73 -32
-64 -9 3 8 0 14 -7 12 -7 -1 -11 6 -11 16 1 9 -5 17 -14 17 -13 0 -12 3 3 20
17 19 17 20 -1 20 -13 0 -19 -8 -20 -25z"/>
<path d="M1898 1723 c6 -2 18 -2 25 0 6 3 1 5 -13 5 -14 0 -19 -2 -12 -5z"/>
<path d="M750 1711 c0 -6 4 -13 10 -16 6 -3 7 1 4 9 -7 18 -14 21 -14 7z"/>
<path d="M1790 1710 c0 -5 5 -10 10 -10 6 0 10 5 10 10 0 6 -4 10 -10 10 -5 0
-10 -4 -10 -10z"/>
<path d="M2170 1648 c-24 -38 -61 -87 -82 -109 -20 -21 -33 -39 -28 -39 20 0
171 203 159 215 -2 2 -24 -28 -49 -67z"/>
<path d="M1219 1665 c-6 -25 -1 -49 9 -53 8 -2 12 3 10 14 -2 12 4 19 17 22
16 2 17 1 5 -7 -12 -9 -11 -11 8 -11 24 0 28 10 10 28 -12 12 -57 17 -59 7z"/>
<path d="M1386 1648 c9 -16 24 -28 33 -27 13 0 13 2 1 6 -8 4 -23 16 -33 27
-18 21 -18 20 -1 -6z"/>
<path d="M1020 1645 c0 -7 15 -15 33 -18 43 -6 43 -4 2 15 -27 12 -35 13 -35
3z"/>
<path d="M1191 1623 c-1 -38 31 -65 65 -57 17 4 29 -3 55 -35 18 -23 39 -41
48 -41 11 0 10 3 -5 14 -10 8 -19 18 -19 23 0 4 -10 22 -23 40 -20 29 -26 31
-49 22 -36 -13 -51 -6 -62 33 l-9 33 -1 -32z"/>
<path d="M1465 1605 c17 -8 39 -14 50 -14 13 0 8 5 -15 14 -46 18 -74 17 -35
0z"/>
<path d="M1320 1583 c0 -12 3 -14 8 -7 4 7 16 14 27 17 15 4 14 5 -7 6 -21 1
-28 -4 -28 -16z"/>
<path d="M1547 1594 c-4 -4 -7 -29 -7 -56 0 -44 -2 -49 -32 -63 l-33 -14 40 2
40 2 6 60 c6 58 0 83 -14 69z"/>
<path d="M2041 1548 c-16 -24 -48 -63 -71 -86 l-41 -44 -60 7 c-55 6 -63 5
-86 -16 -22 -21 -33 -24 -106 -23 -77 1 -183 29 -211 55 -6 5 -21 9 -35 9 -21
-1 -15 -7 31 -31 72 -37 157 -59 224 -59 63 0 95 11 123 42 13 13 25 19 29 13
10 -14 90 -19 106 -6 22 18 17 -35 -5 -55 -16 -15 -20 -15 -48 2 -16 10 -28
20 -26 23 2 3 -9 7 -23 7 -25 2 -26 1 -7 -10 11 -6 34 -25 52 -42 l33 -32 30
34 c24 28 30 44 30 81 0 39 5 52 39 88 37 40 67 85 57 85 -3 0 -19 -19 -35
-42z"/>
<path d="M2443 1540 c-22 -9 -27 -20 -37 -81 -5 -30 1 -50 33 -113 42 -83 59
-162 42 -194 -9 -17 -29 -21 -141 -32 -125 -12 -293 -11 -306 3 -3 3 8 40 25
81 41 99 39 117 -4 36 -55 -102 -52 -101 -141 -57 l-75 38 -72 -41 c-40 -23
-83 -50 -97 -61 -22 -17 -23 -20 -9 -29 47 -28 142 -107 204 -169 l69 -71 -43
0 c-30 0 -41 -4 -39 -12 6 -18 73 -39 146 -45 l62 -6 0 -33 c0 -31 3 -34 29
-34 17 0 33 5 37 12 4 6 3 9 -2 6 -17 -10 -54 11 -54 30 0 25 -25 46 -46 38
-9 -3 -21 -3 -27 1 -12 7 -17 9 -49 11 -10 1 -18 6 -18 11 0 5 8 7 19 4 10 -3
22 1 26 7 5 8 2 10 -12 6 -14 -5 -22 1 -32 27 -8 17 -13 36 -11 42 1 5 -1 7
-5 3 -4 -3 -28 15 -54 40 -52 52 -111 103 -111 96 0 -3 -12 7 -27 21 -15 14
-32 25 -37 25 -5 0 26 21 70 48 l79 48 45 -33 c29 -20 62 -33 90 -37 25 -2 46
-5 48 -5 2 -1 0 -5 -3 -11 -3 -5 1 -10 10 -10 9 0 14 -4 10 -9 -3 -5 0 -13 6
-17 7 -4 9 -3 6 2 -3 6 47 10 126 11 73 0 165 4 205 8 48 5 72 4 72 -3 0 -19
-124 -135 -134 -125 -3 3 -16 -4 -30 -15 -14 -11 -42 -23 -62 -27 -20 -3 -34
-9 -31 -12 12 -11 117 29 160 62 25 19 48 35 51 35 14 0 46 -46 41 -59 -4 -11
-3 -12 10 -1 10 8 15 9 15 1 0 -31 -156 -70 -287 -71 -40 0 -73 -4 -73 -9 0
-16 245 11 313 34 l38 13 -3 -26 c-4 -33 -20 -52 -45 -52 -10 0 -36 -7 -58
-15 -22 -8 -60 -14 -85 -15 -25 0 -58 -7 -74 -15 -15 -8 -35 -15 -42 -15 -8 0
-14 -10 -14 -25 0 -18 5 -25 20 -25 17 0 20 -7 20 -44 0 -26 -6 -48 -15 -56
-8 -7 -15 -9 -15 -6 0 4 -9 2 -20 -4 -33 -18 -58 3 -63 53 l-4 42 -1 -48 c-2
-43 1 -48 24 -57 14 -6 30 -8 35 -4 5 3 9 -21 9 -55 0 -45 4 -61 14 -61 7 0
48 -36 90 -80 l76 -80 55 0 c43 0 55 3 55 16 0 36 -24 53 -140 98 l-120 48 0
55 c0 40 5 59 16 68 13 9 16 29 16 92 l0 80 82 6 c85 6 158 27 187 53 26 23
33 78 14 114 -8 16 -20 30 -26 30 -6 0 -7 5 -4 10 3 6 -3 10 -14 10 -12 0 -21
5 -21 10 0 6 11 8 25 4 18 -5 25 -2 25 9 0 8 -6 18 -12 20 -8 3 -5 6 5 6 10 1
15 6 12 11 -3 6 -1 10 4 10 6 0 11 12 11 26 0 18 5 25 18 23 9 -2 29 0 43 4
23 6 29 17 47 84 21 78 52 243 52 276 0 38 -36 57 -107 56 -38 0 -78 -4 -90
-9z m118 -21 c5 -8 9 -33 9 -56 0 -24 3 -43 8 -43 9 0 8 72 -1 87 -4 6 0 13 8
17 24 9 34 -24 23 -84 -5 -30 -10 -68 -12 -85 -7 -72 -43 -195 -57 -195 -14 0
-24 5 -23 10 1 3 5 16 9 30 7 24 7 24 -8 5 -16 -20 -16 -20 -10 3 3 12 -4 50
-16 83 l-22 60 22 45 c17 35 20 57 16 93 -5 45 -5 47 20 45 13 0 29 -7 34 -15z
m-70 -1 c0 -7 3 -26 5 -42 6 -34 -11 -82 -32 -90 -34 -13 -49 91 -18 125 20
22 44 25 45 7z m-316 -758 c3 -5 1 -10 -4 -10 -6 0 -11 5 -11 10 0 6 2 10 4
10 3 0 8 -4 11 -10z m96 -343 c0 -9 2 -9 5 0 6 14 48 1 78 -25 15 -13 17 -13
11 -2 -8 13 -7 13 8 1 32 -26 21 -43 -25 -39 -42 3 -53 11 -108 82 -14 18 -14
19 8 7 12 -6 22 -17 23 -24z"/>
<path d="M2572 1380 c0 -19 2 -27 5 -17 2 9 2 25 0 35 -3 9 -5 1 -5 -18z"/>
<path d="M2548 1287 c-10 -28 -16 -53 -14 -55 6 -5 39 86 35 97 -2 5 -12 -13
-21 -42z"/>
<path d="M1080 1489 c0 -5 5 -7 10 -4 6 3 10 8 10 11 0 2 -4 4 -10 4 -5 0 -10
-5 -10 -11z"/>
<path d="M2020 1479 c0 -5 5 -7 10 -4 6 3 10 8 10 11 0 2 -4 4 -10 4 -5 0 -10
-5 -10 -11z"/>
<path d="M2060 1476 c0 -9 5 -16 10 -16 6 0 10 4 10 9 0 6 -4 13 -10 16 -5 3
-10 -1 -10 -9z"/>
<path d="M1271 1436 c-25 -40 -57 -50 -134 -42 -29 3 -46 3 -39 0 6 -3 10 -9
8 -12 -7 -12 58 -13 121 -1 42 9 60 16 56 25 -2 7 1 22 7 34 20 36 4 33 -19
-4z"/>
<path d="M1578 1443 c7 -3 16 -2 19 1 4 3 -2 6 -13 5 -11 0 -14 -3 -6 -6z"/>
<path d="M1660 1440 c30 -5 67 -13 81 -18 25 -10 60 0 42 11 -4 3 -46 8 -93
11 -72 4 -76 4 -30 -4z"/>
<path d="M1076 1425 c-3 -8 -1 -15 4 -15 6 0 10 7 10 15 0 8 -2 15 -4 15 -2 0
-6 -7 -10 -15z"/>
<path d="M771 1394 c0 -11 3 -14 6 -6 3 7 2 16 -1 19 -3 4 -6 -2 -5 -13z"/>
<path d="M715 1350 c3 -5 8 -10 11 -10 2 0 4 5 4 10 0 6 -5 10 -11 10 -5 0 -7
-4 -4 -10z"/>
<path d="M1376 1345 c4 -8 10 -15 16 -15 5 0 6 -5 2 -12 -5 -7 -3 -8 5 -4 9 6
8 13 -5 27 -21 23 -25 24 -18 4z"/>
<path d="M2080 1346 c0 -8 5 -18 10 -21 6 -3 10 3 10 14 0 12 -4 21 -10 21 -5
0 -10 -6 -10 -14z"/>
<path d="M772 1330 c0 -14 2 -19 5 -12 2 6 2 18 0 25 -3 6 -5 1 -5 -13z"/>
<path d="M1460 1340 c0 -5 5 -10 10 -10 6 0 10 5 10 10 0 6 -4 10 -10 10 -5 0
-10 -4 -10 -10z"/>
<path d="M2160 1333 c0 -10 5 -25 10 -33 8 -12 10 -9 10 12 0 15 -4 30 -10 33
-5 3 -10 -2 -10 -12z"/>
<path d="M691 1324 c0 -11 3 -14 6 -6 3 7 2 16 -1 19 -3 4 -6 -2 -5 -13z"/>
<path d="M870 1336 c0 -2 7 -9 15 -16 13 -11 14 -10 9 4 -5 14 -24 23 -24 12z"/>
<path d="M950 1331 c0 -6 4 -13 10 -16 6 -3 7 1 4 9 -7 18 -14 21 -14 7z"/>
<path d="M1777 1332 c34 -5 61 -15 75 -30 13 -13 17 -22 10 -22 -7 0 -11 -4
-7 -9 3 -5 1 -12 -5 -16 -5 -3 -10 -11 -10 -18 0 -6 12 1 27 15 l27 27 -28 27
c-22 23 -37 28 -84 30 l-57 3 52 -7z"/>
<path d="M1688 1318 c-16 -5 -28 -15 -28 -21 0 -8 4 -7 12 1 7 7 20 12 30 12
10 0 18 5 18 10 0 6 -1 10 -2 9 -2 0 -15 -5 -30 -11z"/>
<path d="M1568 1313 c7 -3 16 -2 19 1 4 3 -2 6 -13 5 -11 0 -14 -3 -6 -6z"/>
<path d="M1990 1310 c8 -5 24 -10 34 -10 26 0 18 6 -19 14 -22 5 -26 4 -15 -4z"/>
<path d="M2213 1313 c9 -2 25 -2 35 0 9 3 1 5 -18 5 -19 0 -27 -2 -17 -5z"/>
<path d="M735 1300 c3 -5 11 -10 16 -10 6 0 7 5 4 10 -3 6 -11 10 -16 10 -6 0
-7 -4 -4 -10z"/>
<path d="M1430 1301 c8 -6 28 -11 44 -11 39 0 31 6 -19 14 -29 5 -36 4 -25 -3z"/>
<path d="M490 1293 c-17 -6 -40 -32 -40 -46 0 -6 12 3 26 18 24 26 30 27 82
22 36 -3 48 -2 32 3 -29 9 -78 11 -100 3z"/>
<path d="M1595 1283 c-21 -7 -42 -16 -45 -19 -9 -9 54 8 80 22 32 17 16 16
-35 -3z"/>
<path d="M788 1283 c6 -2 18 -2 25 0 6 3 1 5 -13 5 -14 0 -19 -2 -12 -5z"/>
<path d="M868 1283 c7 -3 16 -2 19 1 4 3 -2 6 -13 5 -11 0 -14 -3 -6 -6z"/>
<path d="M621 1276 c2 -2 18 -6 34 -10 22 -5 26 -4 15 4 -14 9 -59 15 -49 6z"/>
<path d="M690 1260 c0 -6 7 -10 15 -10 8 0 15 2 15 4 0 2 -7 6 -15 10 -8 3
-15 1 -15 -4z"/>
<path d="M1520 1260 c-8 -5 -41 -12 -72 -16 -32 -4 -58 -10 -58 -14 0 -8 139
15 148 25 10 10 -4 14 -18 5z"/>
<path d="M785 1236 c55 -11 75 -12 64 -2 -2 2 -31 6 -64 9 l-60 5 60 -12z"/>
<path d="M860 1227 c14 -15 384 -27 398 -13 3 3 -58 6 -135 6 -77 0 -169 3
-204 6 -35 4 -62 4 -59 1z"/>
<path d="M1298 1223 c18 -2 45 -2 60 0 15 2 0 4 -33 4 -33 0 -45 -2 -27 -4z"/>
<path d="M2218 1173 c6 -2 18 -2 25 0 6 3 1 5 -13 5 -14 0 -19 -2 -12 -5z"/>
<path d="M550 1140 c8 -5 22 -9 30 -9 10 0 8 3 -5 9 -27 12 -43 12 -25 0z"/>
<path d="M623 1123 c9 -2 25 -2 35 0 9 3 1 5 -18 5 -19 0 -27 -2 -17 -5z"/>
<path d="M724 1119 c-3 -5 9 -9 25 -9 17 0 31 2 31 4 0 8 -51 13 -56 5z"/>
<path d="M1573 1113 c9 -2 25 -2 35 0 9 3 1 5 -18 5 -19 0 -27 -2 -17 -5z"/>
<path d="M1033 1103 c31 -2 83 -2 115 0 31 2 5 3 -58 3 -63 0 -89 -1 -57 -3z"/>
<path d="M1273 1103 c37 -2 97 -2 135 0 37 2 6 3 -68 3 -74 0 -105 -1 -67 -3z"/>
<path d="M1488 1103 c6 -2 18 -2 25 0 6 3 1 5 -13 5 -14 0 -19 -2 -12 -5z"/>
<path d="M1618 1073 c7 -3 16 -2 19 1 4 3 -2 6 -13 5 -11 0 -14 -3 -6 -6z"/>
<path d="M618 1063 c7 -3 16 -2 19 1 4 3 -2 6 -13 5 -11 0 -14 -3 -6 -6z"/>
<path d="M1538 1063 c7 -3 16 -2 19 1 4 3 -2 6 -13 5 -11 0 -14 -3 -6 -6z"/>
<path d="M673 1053 c9 -2 23 -2 30 0 6 3 -1 5 -18 5 -16 0 -22 -2 -12 -5z"/>
<path d="M1355 1049 c-27 -6 -26 -7 12 -8 23 0 44 3 47 7 6 9 -18 10 -59 1z"/>
<path d="M748 1043 c7 -3 16 -2 19 1 4 3 -2 6 -13 5 -11 0 -14 -3 -6 -6z"/>
<path d="M2198 1043 c7 -3 16 -2 19 1 4 3 -2 6 -13 5 -11 0 -14 -3 -6 -6z"/>
<path d="M823 1033 c9 -2 25 -2 35 0 9 3 1 5 -18 5 -19 0 -27 -2 -17 -5z"/>
<path d="M920 1030 c25 -8 147 -13 139 -6 -2 2 -40 6 -84 8 -44 3 -69 2 -55
-2z"/>
<path d="M1128 1033 c18 -2 45 -2 60 0 15 2 0 4 -33 4 -33 0 -45 -2 -27 -4z"/>
<path d="M1268 1033 c7 -3 16 -2 19 1 4 3 -2 6 -13 5 -11 0 -14 -3 -6 -6z"/>
<path d="M1582 1015 c0 -16 2 -22 5 -12 2 9 2 23 0 30 -3 6 -5 -1 -5 -18z"/>
<path d="M1600 931 c0 -6 4 -13 10 -16 6 -3 7 1 4 9 -7 18 -14 21 -14 7z"/>
<path d="M1660 909 c0 -14 11 -86 24 -160 14 -74 28 -154 32 -179 4 -25 9 -38
11 -29 2 9 -7 81 -21 160 -15 79 -26 157 -26 174 0 16 -5 37 -10 45 -8 12 -10
10 -10 -11z"/>
<path d="M2608 833 c72 -2 192 -2 265 0 72 1 13 3 -133 3 -146 0 -205 -2 -132
-3z"/>
<path d="M13 760 c0 -25 2 -35 4 -22 2 12 2 32 0 45 -2 12 -4 2 -4 -23z"/>
<path d="M1878 603 c-2 -109 -1 -202 0 -206 2 -4 9 -3 16 2 7 6 21 12 32 14
10 2 36 11 58 20 21 9 46 17 55 17 9 0 22 5 28 11 19 19 38 4 92 -67 53 -69
62 -94 36 -94 -8 0 -15 4 -15 9 0 5 -13 14 -30 21 -16 7 -30 16 -30 19 0 4
-44 2 -97 -5 -54 -7 -104 -13 -112 -14 -8 0 -12 -3 -9 -6 3 -3 51 0 107 7
l101 12 55 -36 c30 -21 57 -37 60 -37 3 0 5 11 5 24 0 13 -27 61 -60 107 -54
76 -60 89 -62 139 l-1 55 -6 -54 -6 -55 -109 -38 c-60 -21 -104 -32 -98 -25 7
8 12 69 13 152 0 79 5 145 11 153 7 8 7 12 -1 12 -6 0 -11 14 -11 30 0 17 -4
30 -10 30 -5 0 -10 -80 -12 -197z"/>
<path d="M100 729 c-43 -5 -34 -6 45 -7 98 0 115 3 45 10 -19 2 -60 0 -90 -3z"/>
<path d="M2705 729 l-100 -5 124 -2 c68 -1 122 0 119 3 -9 9 -39 10 -143 4z"/>
<path d="M2864 728 c-3 -4 28 -8 68 -7 83 1 81 6 -5 12 -32 2 -60 0 -63 -5z"/>
<path d="M2140 660 c0 -11 4 -20 9 -20 5 0 7 9 4 20 -3 11 -7 20 -9 20 -2 0
-4 -9 -4 -20z"/>
<path d="M1731 480 c0 -25 3 -51 8 -59 5 -8 7 5 4 35 -6 68 -11 77 -12 24z"/>
<path d="M1822 447 c3 -66 22 -82 26 -22 2 25 -3 48 -13 60 -14 19 -15 16 -13
-38z"/>
<path d="M310 420 c-9 -6 -10 -10 -3 -10 6 0 15 5 18 10 8 12 4 12 -15 0z"/>
<path d="M270 400 c0 -5 5 -10 10 -10 6 0 10 5 10 10 0 6 -4 10 -10 10 -5 0
-10 -4 -10 -10z"/>
<path d="M1647 375 c-44 -38 -48 -62 -9 -71 15 -3 32 -7 37 -8 6 -2 -9 -12
-32 -24 -55 -28 -61 -41 -33 -64 30 -24 76 -18 140 20 25 14 57 25 72 24 24
-2 28 2 34 33 3 19 4 45 1 57 -4 12 -1 29 6 37 9 12 9 13 -1 7 -6 -4 -19 -20
-27 -36 -14 -27 -94 -80 -122 -80 -23 0 -27 30 -6 53 20 22 43 60 43 72 0 3
-10 0 -22 -6 -17 -9 -24 -9 -32 3 -10 13 -17 11 -49 -17z m46 -31 c-6 -16 -39
-28 -53 -19 -7 4 0 16 17 31 27 23 47 17 36 -12z m141 -59 c-7 -17 -20 -20
-28 -6 -4 5 0 12 6 14 23 9 28 7 22 -8z m-115 -35 c25 0 25 0 5 -14 -30 -22
-104 -26 -104 -6 0 15 54 40 65 29 5 -5 20 -9 34 -9z"/>
<path d="M308 383 c7 -3 16 -2 19 1 4 3 -2 6 -13 5 -11 0 -14 -3 -6 -6z"/>
<path d="M558 353 c6 -2 18 -2 25 0 6 3 1 5 -13 5 -14 0 -19 -2 -12 -5z"/>
<path d="M683 343 c15 -2 37 -2 50 0 12 2 0 4 -28 4 -27 0 -38 -2 -22 -4z"/>
<path d="M1053 333 c65 -2 168 -2 230 0 62 1 9 3 -118 3 -126 0 -177 -2 -112
-3z"/>
<path d="M1413 333 c9 -2 23 -2 30 0 6 3 -1 5 -18 5 -16 0 -22 -2 -12 -5z"/>
<path d="M2429 307 c5 -5 19 -7 32 -5 20 3 19 5 -9 9 -20 3 -29 2 -23 -4z"/>
<path d="M2491 297 c2 -1 13 -9 24 -17 19 -14 19 -14 6 3 -7 9 -18 17 -24 17
-6 0 -8 -1 -6 -3z"/>
<path d="M1557 276 c-10 -8 -14 -16 -10 -19 5 -3 14 3 21 14 14 22 13 23 -11
5z"/>
<path d="M2535 250 c-3 -5 -2 -10 4 -10 5 0 13 5 16 10 3 6 2 10 -4 10 -5 0
-13 -4 -16 -10z"/>
<path d="M1508 233 c7 -3 16 -2 19 1 4 3 -2 6 -13 5 -11 0 -14 -3 -6 -6z"/>
<path d="M2500 229 c0 -5 5 -7 10 -4 6 3 10 8 10 11 0 2 -4 4 -10 4 -5 0 -10
-5 -10 -11z"/>
<path d="M1414 199 c-3 -6 -1 -16 6 -22 10 -9 11 -9 5 2 -4 8 -2 17 6 22 9 6
10 9 2 9 -6 0 -15 -5 -19 -11z"/>
<path d="M2368 203 c6 -2 18 -2 25 0 6 3 1 5 -13 5 -14 0 -19 -2 -12 -5z"/>
<path d="M2288 193 c7 -3 16 -2 19 1 4 3 -2 6 -13 5 -11 0 -14 -3 -6 -6z"/>
<path d="M2168 183 c6 -2 18 -2 25 0 6 3 1 5 -13 5 -14 0 -19 -2 -12 -5z"/>
<path d="M1825 140 c4 -6 11 -8 16 -5 14 9 11 15 -7 15 -8 0 -12 -5 -9 -10z"/>
<path d="M1868 143 c6 -2 18 -2 25 0 6 3 1 5 -13 5 -14 0 -19 -2 -12 -5z"/>
<path d="M1703 133 c15 -2 37 -2 50 0 12 2 0 4 -28 4 -27 0 -38 -2 -22 -4z"/>
</g>
</svg>
